<?xml version='1.0' encoding='utf-8'?>
<svg xmlns="http://www.w3.org/2000/svg" width="100%" height="100%" viewBox="0 0 750 364" version="1.1" style="fill-rule:evenodd;clip-rule:evenodd;stroke-linecap:round;stroke-linejoin:round;stroke-miterlimit:1;"> <g transform="matrix(0.897363,0,0,0.897363,-1263.81,-1424.95)"> <g id="Straße" transform="matrix(0.686052,0,0,0.519835,-412.348,1343.32)"> <path d="M3595.83,792.222C3608.02,798.358 3614.54,815.217 3620.84,828.07C3662.41,912.927 3799.89,953.537 3748.49,1005.74C3732.21,1022.28 3606.48,1083.79 3605.22,1085.26C3575.35,1120.29 3334.83,1143.35 3262.19,1132.58C3229.41,1127.72 3208.2,1117.56 3149,1082.34C3131.98,1072.21 3092.45,1083.4 3062.92,1119.34C3009.15,1184.78 2774.99,1163.53 2735.82,1157.21C2702.55,1151.86 2636.01,1096.32 2666.95,1073.9C2700.04,1049.93 2752.84,1086.87 2761.64,983.019" style="fill:none;stroke:rgb(0,69,136);stroke-width:11.44px;stroke-dasharray:0,22.89,22.89,0;stroke-dashoffset:114.43;"/> </g> <g transform="matrix(0.36116,0,0,0.36116,1591.24,1365.52)"> <g> <path d="M1250.46,682.166L1252.28,682.182C1257.14,682.268 1262.13,682.698 1267.22,683.472C1270.33,683.575 1278.06,686.091 1290.42,691.019C1299.93,695.477 1308.38,701.407 1315.78,708.809C1333.92,727.531 1342.96,749.676 1342.9,775.243L1341.45,790.513C1337.99,803.928 1335.47,811.66 1333.9,813.707C1329.44,823.22 1323.51,831.674 1316.11,839.067C1299.71,856.157 1278.07,865.149 1251.17,866.042C1239.69,866.229 1228.82,864.301 1218.55,860.257C1213.53,858.395 1208.77,856.166 1204.28,853.569C1193.51,846.433 1187.37,841.71 1185.85,839.4C1177.03,829.464 1172.13,823.125 1171.15,820.381C1168.44,815.763 1166.17,810.994 1164.36,806.073C1160.74,796.231 1158.91,785.784 1158.88,774.73C1158.69,762.982 1160.62,752.017 1164.66,741.835C1166.52,736.814 1168.75,732.057 1171.35,727.565C1172.19,724.988 1176.91,718.847 1185.52,709.142C1201.92,692.051 1223.57,683.059 1250.46,682.166M1252.58,615.813L1230.73,617.283C1186.71,624.25 1151.5,644.636 1125.11,678.44C1116.65,689.367 1109.69,701.273 1104.21,714.159L1097.31,734.03L1093.03,754.986C1091.45,773.412 1091.07,784.118 1091.88,787.106C1092.1,811.872 1101.77,839.338 1120.89,869.503L1239.89,1024.08C1244.03,1028.57 1248.68,1030.61 1253.82,1030.2C1259.26,1029.37 1263.4,1026.93 1266.24,1022.9L1389.58,861.471C1406.93,830.136 1414.94,801.924 1413.61,776.835C1412.45,731.219 1396.73,693.266 1366.44,662.975C1336.15,632.685 1298.2,616.964 1252.58,615.813Z" style="fill:rgb(170,217,94);fill-rule:nonzero;"/> </g> <g> <path d="M1298.78,1046.41C1298.78,1053.18 1276.44,1058.67 1248.88,1058.67C1221.33,1058.67 1198.99,1053.18 1198.99,1046.41C1198.99,1039.63 1221.33,1034.14 1248.88,1034.14C1276.44,1034.14 1298.78,1039.63 1298.78,1046.41Z" style="fill:rgb(170,217,94);fill-rule:nonzero;"/> </g> </g> <g transform="matrix(0.36116,0,0,0.36116,1030.75,1463.37)"> <g> <path d="M1250.46,682.166L1252.28,682.182C1257.14,682.268 1262.13,682.698 1267.22,683.472C1270.33,683.575 1278.06,686.091 1290.42,691.019C1299.93,695.477 1308.38,701.407 1315.78,708.809C1333.92,727.531 1342.96,749.676 1342.9,775.243L1341.45,790.513C1337.99,803.928 1335.47,811.66 1333.9,813.707C1329.44,823.22 1323.51,831.674 1316.11,839.067C1299.71,856.157 1278.07,865.149 1251.17,866.042C1239.69,866.229 1228.82,864.301 1218.55,860.257C1213.53,858.395 1208.77,856.166 1204.28,853.569C1193.51,846.433 1187.37,841.71 1185.85,839.4C1177.03,829.464 1172.13,823.125 1171.15,820.381C1168.44,815.763 1166.17,810.994 1164.36,806.073C1160.74,796.231 1158.91,785.784 1158.88,774.73C1158.69,762.982 1160.62,752.017 1164.66,741.835C1166.52,736.814 1168.75,732.057 1171.35,727.565C1172.19,724.988 1176.91,718.847 1185.52,709.142C1201.92,692.051 1223.57,683.059 1250.46,682.166M1252.58,615.813L1230.73,617.283C1186.71,624.25 1151.5,644.636 1125.11,678.44C1116.65,689.367 1109.69,701.273 1104.21,714.159L1097.31,734.03L1093.03,754.986C1091.45,773.412 1091.07,784.118 1091.88,787.106C1092.1,811.872 1101.77,839.338 1120.89,869.503L1239.89,1024.08C1244.03,1028.57 1248.68,1030.61 1253.82,1030.2C1259.26,1029.37 1263.4,1026.93 1266.24,1022.9L1389.58,861.471C1406.93,830.136 1414.94,801.924 1413.61,776.835C1412.45,731.219 1396.73,693.266 1366.44,662.975C1336.15,632.685 1298.2,616.964 1252.58,615.813Z" style="fill:rgb(255,183,15);fill-rule:nonzero;"/> </g> <g> <path d="M1298.78,1046.41C1298.78,1053.18 1276.44,1058.67 1248.88,1058.67C1221.33,1058.67 1198.99,1053.18 1198.99,1046.41C1198.99,1039.63 1221.33,1034.14 1248.88,1034.14C1276.44,1034.14 1298.78,1039.63 1298.78,1046.41Z" style="fill:rgb(255,183,15);fill-rule:nonzero;"/> </g> </g> <g transform="matrix(0.652784,0,0,0.507272,1522.53,1922.71)"> <path d="M0,74.752C-14.238,49.835 8.899,44.495 14.238,58.733C24.918,33.816 39.156,40.936 46.275,46.275C51.614,0 80.092,26.697 80.092,40.936C97.89,0 129.926,24.917 117.468,42.716C140.605,30.257 147.725,40.936 144.165,51.614C165.522,51.614 167.302,69.412 147.725,74.752L0,74.752Z" style="fill:rgb(170,217,94);fill-rule:nonzero;"/> </g> <g transform="matrix(0.0707451,0,0,0.0707451,1597.35,1819.07)"> <g transform="matrix(4.16667,0,0,4.16667,1582.86,1763.49)"> <path d="M0,-172.892L-6.78,0L10.17,0L0,-172.892Z" style="fill:rgb(77,36,1);fill-rule:nonzero;"/> </g> <g transform="matrix(4.16667,0,0,4.16667,1586.39,763.98)"> <path d="M0,155.979C-62.715,152.589 -66.014,45.499 -11.475,21.725C46.142,-3.39 71.191,50.888 52.546,78.008C105.091,91.568 64.411,159.369 0,155.979" style="fill:rgb(76,125,47);fill-rule:nonzero;"/> </g> <g transform="matrix(4.16667,0,0,4.16667,2224.52,1805.16)"> <path d="M0,-172.892L-6.78,0L10.17,0L0,-172.892Z" style="fill:rgb(77,36,1);fill-rule:nonzero;"/> </g> <g transform="matrix(4.16667,0,0,4.16667,2228.05,805.647)"> <path d="M0,155.979C-62.715,152.589 -66.014,45.499 -11.475,21.725C46.142,-3.39 71.191,50.888 52.546,78.008C105.091,91.568 64.411,159.369 0,155.979" style="fill:rgb(172,206,34);fill-rule:nonzero;"/> </g> <g transform="matrix(4.16667,0,0,4.16667,1899.52,2000.99)"> <path d="M0,-172.892L-6.78,0L10.17,0L0,-172.892Z" style="fill:rgb(77,36,1);fill-rule:nonzero;"/> </g> <g transform="matrix(4.16667,0,0,4.16667,1903.05,1001.48)"> <path d="M0,155.979C-62.715,152.589 -66.014,45.499 -11.475,21.725C46.142,-3.39 71.191,50.888 52.546,78.008C105.091,91.568 64.411,159.369 0,155.979" style="fill:rgb(57,94,35);fill-rule:nonzero;"/> </g> </g> <g transform="matrix(0.0719946,0,0,0.0719946,1419.49,1806.42)"> <g transform="matrix(4.16667,0,0,4.16667,1359.02,1647.6)"> <path d="M0,-172.892L-6.78,0L10.17,0L0,-172.892Z" style="fill:rgb(77,36,1);fill-rule:nonzero;"/> </g> <g transform="matrix(4.16667,0,0,4.16667,1362.55,648.088)"> <path d="M0,155.979C-62.716,152.589 -66.015,45.499 -11.475,21.725C46.142,-3.39 71.19,50.888 52.545,78.008C105.091,91.568 64.41,159.369 0,155.979" style="fill:rgb(172,206,34);fill-rule:nonzero;"/> </g> <g transform="matrix(4.16667,0,0,4.16667,1650.76,1813.82)"> <path d="M0,-172.892L-6.78,0L10.17,0L0,-172.892Z" style="fill:rgb(77,36,1);fill-rule:nonzero;"/> </g> <g transform="matrix(4.16667,0,0,4.16667,1654.29,814.305)"> <path d="M0,155.979C-62.716,152.589 -66.015,45.499 -11.475,21.725C46.142,-3.39 71.19,50.888 52.545,78.008C105.091,91.568 64.41,159.369 0,155.979" style="fill:rgb(57,94,35);fill-rule:nonzero;"/> </g> </g> <g transform="matrix(0.674425,-0.128548,0.187232,0.982316,330.381,387.565)"> <ellipse cx="1919.29" cy="1818.9" rx="100.394" ry="23.622" style="fill:white;"/> </g> <g transform="matrix(-0.204139,0,0,0.204139,2352.31,1817.12)"> <g transform="matrix(4.16667,0,0,4.16667,1644.7,679.639)"> <path d="M0,-22.647C-5.36,-19.771 -11.612,-28.11 -19.656,-30.409C-27.699,-32.71 -27.25,-35.445 -25.91,-37.744C-24.57,-40.043 -18.135,-39.042 -18.135,-39.042C-18.135,-39.042 -19.435,-37.886 -15.633,-39.184C-11.836,-40.474 -7.371,-42.777 -1.338,-41.051C4.695,-39.327 1.345,-37.168 6.035,-37.886C10.726,-38.606 14.523,-39.327 17.652,-36.164C20.779,-32.999 5.365,-25.521 0,-22.647M-20.544,-6.139C-22.593,-6.242 -24.596,-6.388 -26.155,-6.784C-23.158,-8.321 -20.83,-10.137 -20.83,-10.137C-20.83,-10.137 -21.037,-8.782 -20.544,-6.139M-44.981,-32.76C-44.981,-33.077 -45.047,-33.384 -45.157,-33.685C-36.364,-34.075 -22.919,-18.537 -24.683,-15.851C-25.343,-14.847 -26.992,-14.44 -28.989,-14.293C-28.658,-16.361 -28.617,-18.462 -30.79,-20.308C-35.25,-24.097 -44.981,-28.428 -44.981,-32.76M-121.01,17.767C-121.222,17.788 -121.423,17.808 -121.628,17.829C-117.724,15.628 -114.873,13.877 -113.824,13.051C-112.566,12.059 -111.21,11.518 -109.837,11.295C-112.01,13.931 -115.835,17.274 -121.01,17.767M195.823,5.394C187.107,-7.763 153.259,-19.84 139.858,-23.941C126.452,-28.038 91.768,-59.097 76.183,-64.919C60.604,-70.745 36.139,-51.008 33.626,-48.42C31.112,-45.833 27.596,-38.175 12.516,-46.585C-2.567,-54.999 -25.688,-47.017 -32.724,-41.844C-39.765,-36.667 -36.076,-38.391 -47.806,-39.902C-49.722,-40.148 -51.764,-39.897 -53.854,-39.281C-55.188,-39.732 -56.132,-39.977 -56.132,-39.977L-59.229,-36.998C-68.288,-32.086 -77.07,-22.418 -79.644,-17.903C-79.947,-17.368 -80.362,-16.793 -80.86,-16.19L-85.362,-11.86C-89.435,-8.511 -95.173,-4.752 -101.76,-1.175C-96.258,-7.236 -88.026,-16.059 -86.544,-17.691C-84.414,-20.038 -82.286,-17.691 -82.286,-17.691L-99.182,-38.353C-106.752,-38.715 -126.754,-19.587 -134.865,-12.128C-142.975,-4.672 -153.518,-1.663 -168.251,4.595C-182.981,10.85 -209.337,32.503 -210.689,33.827C-212.042,35.149 -209.07,36.591 -205.825,38.396C-202.581,40.201 -215.826,44.203 -215.826,44.203L-183.253,44.203C-181.924,41.569 -176.416,38.098 -170.087,34.892C-170.978,35.478 -171.466,35.806 -171.466,35.806C-170.346,38.823 -162.825,37.026 -153.549,33.366C-153.434,33.469 -153.268,33.563 -153.044,33.645C-150.609,34.549 -147.771,33.286 -142.907,33.827C-141.938,33.935 -140.92,34.128 -139.872,34.328C-144.021,36.67 -146.997,42.782 -146.997,42.782C-146.997,42.782 -141.189,41.055 -135.387,39.618C-131.493,38.654 -130.712,36.341 -132.36,34.829C-130.478,34.492 -128.624,33.631 -126.89,31.84C-121.821,26.609 -124.861,24.623 -120.604,23.722C-116.347,22.819 -96.682,23.902 -93.843,20.472C-91.004,17.044 -95.06,18.307 -93.437,15.962C-93.355,15.845 -93.274,15.74 -93.194,15.642C-89.36,15.395 -85.119,13.972 -84.5,11.648C-83.939,9.541 -82.279,5.38 -79.641,1.291C-76.284,0.667 -69.828,2.448 -67.031,-1.839C-68.654,-2.58 -71.431,-1.293 -70.021,-3.757C-69.245,-5.111 -67.366,-5.12 -65.601,-5.041C-63.753,-9.77 -63.334,-12.028 -61.2,-13.451C-61.051,-13.55 -60.896,-13.659 -60.739,-13.775C-58.338,-15.36 -56.424,-16.935 -55.589,-18.544C-55.292,-18.857 -55.118,-19.046 -55.118,-19.046C-55.118,-19.046 -54.309,-11.465 -52.281,-6.052C-50.253,-0.639 -49.645,2.609 -50.658,4.232C-51.672,5.858 -45.59,6.218 -46.197,8.383C-46.806,10.55 -50.455,6.308 -52.382,7.663C-54.309,9.014 -56.74,10.098 -53.497,10.55C-50.253,10.999 -49.441,10.999 -49.948,13.075C-50.455,15.149 -47.313,15.06 -46.705,13.978C-46.097,12.894 -45.691,10.098 -43.358,12.444C-41.027,14.791 -43.055,19.3 -48.936,19.3C-54.814,19.3 -59.072,19.48 -59.883,20.564C-60.694,21.646 -51.773,22.007 -54.916,24.263C-58.059,26.517 -62.417,20.654 -65.661,21.646C-68.905,22.639 -73.468,24.443 -69.514,25.707C-65.56,26.969 -64.749,28.955 -67.992,29.675C-71.236,30.398 -80.969,33.737 -80.461,30.849C-79.954,27.962 -79.55,27.059 -81.475,27.6C-83.4,28.143 -84.617,27.15 -86.544,26.609C-88.47,26.068 -93.437,25.707 -92.627,28.232C-91.815,30.758 -100.33,30.398 -102.966,32.745C-105.603,35.09 -110.468,39.308 -110.568,43.199C-110.568,43.199 -98.202,33.466 -99.519,36.803C-100.837,40.142 -106.108,44.203 -106.108,44.203L23.951,43.199L-9.299,3.51C-9.299,3.51 -9.043,0.54 -9.96,-2.22C-6.014,-2.671 -2.104,-3.365 -0.721,-3.017C2.294,-2.263 -0.555,3.236 -0.219,6.04C0.113,8.845 7.488,8.522 14.523,9.275C21.562,10.028 26.589,19.199 26.589,23.078C26.589,26.963 34.631,23.943 44.353,25.666C54.069,27.392 78.197,41.842 84.23,39.471C90.259,37.097 69.817,22.433 60.099,17.901C50.381,13.374 15.193,-11.755 12.681,-14.234C10.169,-16.713 17.874,-23.617 21.562,-27.39C25.249,-31.168 29.104,-37.96 32.286,-38.929C35.469,-39.902 38.148,-30.517 43.514,-32.03C48.875,-33.539 47.032,-50.9 56.08,-56.079C65.127,-61.254 85.904,-48.744 88.919,-45.294C91.938,-41.844 84.9,-30.626 87.915,-29.763C90.929,-28.902 99.643,-35.373 102.995,-33.214C106.346,-31.059 87.244,-15.529 88.585,-5.821C89.925,3.882 98.079,22.723 99.868,20.85C101.656,18.983 108.355,6.256 114.499,3.382C120.643,0.505 124.442,21.428 124.442,27.753C124.442,34.08 128.014,24.011 132.147,19.413C136.28,14.814 143.992,18.983 150.58,21.139C157.171,23.294 157.841,18.84 161.861,17.401C165.882,15.962 177.393,31.274 180.294,33.29C183.2,35.3 186.885,27.824 190.346,26.098C193.813,24.374 200.399,31.706 219.5,39.903C238.604,48.098 260.163,42.059 260.163,42.059C242.4,41.412 204.532,18.551 195.823,5.394" style="fill:rgb(0,69,136);fill-rule:nonzero;"/> </g> <g transform="matrix(4.16667,0,0,4.16667,1986.33,708.669)"> <path d="M0,-24.292C0,-24.292 -11.168,-22.424 -13.179,-14.659C-15.188,-6.893 -10.272,1.594 -8.041,-2.148C-5.81,-5.888 -7.618,-8.478 -6.824,-10.346C-6.031,-12.212 -2.681,-12.788 -2.453,-13.508C-2.231,-14.228 -5.133,-13.22 -4.69,-16.526C-4.244,-19.834 2.459,-21.131 4.022,-22.281C5.589,-23.43 5.129,-25.886 0,-24.292" style="fill:rgb(0,69,136);fill-rule:nonzero;"/> </g> <g transform="matrix(4.16667,0,0,4.16667,1365.4,657.537)"> <path d="M0,3.465C0.126,3.52 0.247,3.588 0.356,3.672C1.877,4.845 -3.496,6.74 0.356,8.726C4.209,10.71 8.668,1.598 9.277,-2.824C9.886,-7.245 5.932,-5.619 5.932,-5.619C4.611,-5.338 5.932,-2.191 5.121,-0.387C4.724,0.497 3.13,0.339 1.431,0.264C1.171,0.929 0.884,1.639 0.559,2.405C0.395,2.796 0.208,3.146 0,3.465" style="fill:rgb(0,69,136);fill-rule:nonzero;"/> </g> <g transform="matrix(4.16667,0,0,4.16667,1380.91,739.716)"> <path d="M0,-10.719C-3.121,-8.815 -3.264,-6.396 -4.886,-2.247C-6.508,1.903 -0.223,0.19 2.995,-2.788C6.212,-5.765 3.325,-5.947 3.021,-7.479C2.717,-9.013 5.15,-12.307 5.15,-12.307C5.15,-12.307 3.122,-12.622 0,-10.719" style="fill:rgb(0,69,136);fill-rule:nonzero;"/> </g> <g transform="matrix(4.16667,0,0,4.16667,1152.03,711.167)"> <path d="M0,-56.626C3.379,-55.664 2.568,-54.424 0.946,-53.061C-0.676,-51.695 -3.649,-46.402 -16.759,-41.59C-29.869,-36.776 -42.708,-27.636 -44.872,-22.341C-47.037,-17.049 -55.414,-19.335 -58.252,-17.649C-61.093,-15.966 -76.095,-10.072 -73.394,-8.386C-70.688,-6.704 -66.094,-8.539 -68.121,-5.455C-70.149,-2.372 -78.122,2.525 -70.688,0.8C-63.256,-0.93 -60.956,-3.799 -57.441,-3.867C-53.93,-3.935 -52.981,-8.265 -45.685,-11.874C-38.385,-15.483 -33.656,-15.845 -29.398,-16.566C-25.139,-17.286 -6.757,-37.381 -3.515,-41.71C-0.27,-46.041 0.813,-48.929 2.299,-47.544C3.784,-46.16 -0.135,-44.959 3.109,-44.236C6.354,-43.515 15.004,-47.544 15.004,-47.544C15.004,-47.544 6.896,-59.151 1.758,-58.551C-1.966,-58.117 -9.079,-58.323 -12.721,-58.471C-12.718,-58.437 -12.714,-58.398 -12.711,-58.366C-9.153,-58.028 -2.438,-57.322 0,-56.626" style="fill:rgb(0,69,136);fill-rule:nonzero;"/> </g> <g transform="matrix(4.16667,0,0,4.16667,701.418,461.996)"> <path d="M0,72.933C-1.165,72.031 -7.047,74.784 -7.348,72.481C-7.654,70.182 -9.072,69.234 -4.664,68.648C-0.255,68.062 22.187,56.951 29.889,45.4C37.591,33.851 46.649,26.995 48.542,26.995C50.124,26.995 45.84,37.017 42.578,41.415C45.176,38.814 50.524,33.846 57.597,29.4C67.734,23.025 93.549,5.097 93.549,5.097C93.549,5.097 95.589,3.871 95.436,1.435C94.063,1.306 93.144,1.227 93.144,1.227C93.144,1.227 94.042,1.275 95.426,1.33C95.311,0.031 94.587,-1.592 92.605,-3.563C86.793,-9.338 75.979,-23.052 71.925,-20.282C67.87,-17.517 46.921,-2.359 43.27,8.468C39.623,19.295 27.861,41.669 19.209,46.241C10.561,50.814 -3.495,57.311 -11.333,63.084C-19.175,68.86 -40.802,92.917 -41.071,93.639C-41.341,94.362 -40.395,95.985 -34.77,93.413C-29.146,90.842 -17.284,83.941 -16.219,83.85C-15.155,83.759 1.165,73.835 0,72.933" style="fill:rgb(0,69,136);fill-rule:nonzero;"/> </g> <g transform="matrix(4.16667,0,0,4.16667,878.827,642.139)"> <path d="M0,-1.819C-1.127,-0.689 -1.738,0 -1.738,0C-1.234,-0.315 -0.637,-0.962 0,-1.819" style="fill:rgb(0,69,136);fill-rule:nonzero;"/> </g> <g transform="matrix(4.16667,0,0,4.16667,803.424,749.913)"> <path d="M0,3.246C-1.893,4.329 -3.108,6.734 -1.081,5.652C0.947,4.569 2.163,3.523 3.38,1.88C4.597,0.24 7.028,0.24 7.706,-0.963C8.381,-2.167 11.082,-4.452 7.706,-3.61C7.706,-3.61 6.76,-0.844 1.217,-0.723C-4.322,-0.603 -9.595,-0.003 -12.029,2.402C-14.462,4.81 -22.047,3.43 -23.52,4.089C-24.989,4.746 -25.813,6.734 -23.52,7.216C-21.218,7.698 -12.975,7.095 -10.001,4.93C-7.026,2.765 -4.73,1.082 -0.405,1.082C3.922,1.082 1.895,2.165 0,3.246" style="fill:rgb(0,69,136);fill-rule:nonzero;"/> </g> <g transform="matrix(-1.57092,-3.85919,-3.85919,1.57092,644.805,813.397)"> <path d="M-7.66,-15.437C-8.875,-14.833 -8.336,-12.315 -6.088,-2.726C-3.839,6.869 -6.159,9.782 -7.66,8.97C-9.159,8.159 -11.283,-0.173 -11.875,-10C-12.467,-19.83 -7.66,-15.437 -7.66,-15.437" style="fill:rgb(0,69,136);fill-rule:nonzero;"/> </g> </g> <g transform="matrix(1,0,0,1,622.471,-59.1419)"> <g transform="matrix(0.299977,0,0,0.299977,1517.33,1925.04)"> <path d="M0,-172.892L-6.78,0L10.17,0L0,-172.892Z" style="fill:rgb(77,36,1);fill-rule:nonzero;"/> </g> <g transform="matrix(0.299977,0,0,0.299977,1517.58,1853.08)"> <path d="M0,155.979C-62.716,152.589 -66.015,45.499 -11.475,21.725C46.142,-3.39 71.19,50.888 52.545,78.008C105.091,91.568 64.41,159.369 0,155.979" style="fill:rgb(172,206,34);fill-rule:nonzero;"/> </g> </g> </g> </svg>