
<svg class="penguin-app" viewBox="0 0 437.5 437.5" xmlns="http://www.w3.org/2000/svg" xmlns:xlink="http://www.w3.org/1999/xlink">
    <style>
        @import url('logo.css')
    </style>
    <path class="penguin-head"
          d="m100.78 123.39c-17.473-11.238-53.439-13.876-58.354-16.858-1.0941-5.4395 2.9914-9.5855 9.8905-14.985 1.4612-3.459 3.1221-8.7209 4.9452-11.238 2.0844-4.7177 6.5755-14.192 13.847-20.604 6.9652-5.8503 20.73-10.563 30.661-11.238 9.5608-0.93653 21.294 0.18904 28.682 1.8731 8.5662 3.9425 41.664 28.02 51.431 46.827 22.241 11.368 56.176 53.692 72.201 93.654-5.4219 0.0456 54.19-3.1873 73.759 5.0727 15.612 4.514 67.338 17.711 86.695 47.808-73.05-64.366-198.43-44.276-197.05-36.024-0.9891 10.614-4.6262 48.7-15.825 42.144-13.378-8.8824-32.433-57.486-34.617-87.098-0.5254-25.87-52.06-58.036-64.288-59.938-6.1664-1.2983-7.5828 9.3655-1.9781 20.604z"
          fill-rule="evenodd" stroke-width="1.3683"/>
    <path class="penguin-tail"
          d="m340.01 394.61c5.5387 5.8767 7.7463 21.085 12.419 25.259 4.5907 2.063 45.253 1.8798 67.139 6.6224-1.5422-12.779-33.63-22.977-40.563-25.165-10.013-3.0585-18.702-4.3901-27.975-6.6223-4.6631-6.9147-30.755-35.479-36.367-41.058-4.3083-13.097-42.544-117.03-48.956-120.53-22.48 4.0414-39.194-4.03-44.76-19.867 6.3143 7.862 31.706 67.428 29.373 109.93 4.1874 19.787 23.72 42.375 32.171 48.069 13.118 10.676 54.219 18.465 57.518 23.358z"
          fill-rule="evenodd"  stroke-width="1.3683"/>
    <path class="penguin-belly"
          d="m109.68 159.91c8.6624 55.463 19.687 109.69 28.682 126.43 7.8931 17.366 67.094 110.11 60.332 116.13-3.3384 2.7772-22.667-11.972-27.694-19.667-10.916-12.182-47.242-86.548-49.452-92.718-2.8598-4.0318-32.609-85.854-11.868-130.18z"
          fill-rule="evenodd"/>
    <path class="penguin-border" d="m8.4405 9.8473h423.43v422.03h-423.43z" fill="none" stroke-linejoin="bevel"
          stroke-width="12.376"/>
</svg>
